# xmcd CD database file
#
# Track frame offsets:
#	150
#	24712
#	50075
#	74224
#	96405
#	108412
#	133870
#	159018
#	187536
#	205699
#	232036
#	266357
#	286340
#	306226
#
# Disc length: 4391 seconds
#
# Revision: 0
# Processed by: cddbd v1.5.2PL0 Copyright (c) Steve Scherf et al.
# Submitted via: CDex 1.51
#
DISCID=c911250e
DTITLE=Micha³ Urbaniak - Sax Love
DYEAR=2005
DGENRE=Jazz
TTITLE0=Love Away
TTITLE1=Moonlight
TTITLE2=Horny
TTITLE3=Sunshine
TTITLE4=Ptak
TTITLE5=I Just Love You
TTITLE6=Moon Love
TTITLE7=Bossonoga
TTITLE8=You Love Once
TTITLE9=Satin Lady
TTITLE10=Wonder Love
TTITLE11=Blue Ave
TTITLE12=Together Again
TTITLE13=Rosemary's Baby
EXTD=YEAR: 2005
EXTT0=
EXTT1=
EXTT2=
EXTT3=
EXTT4=
EXTT5=
EXTT6=
EXTT7=
EXTT8=
EXTT9=
EXTT10=
EXTT11=
EXTT12=
EXTT13=
PLAYORDER=
